<svg version="1.1" id="Layer_1" xmlns="http://www.w3.org/2000/svg" xmlns:xlink="http://www.w3.org/1999/xlink" x="0px" y="0px"
	 width="100%" viewBox="0 0 800 400" enable-background="new 0 0 800 400" xml:space="preserve">
<path fill="#000000" opacity="1.000000" stroke="none" 
	d="
M233.027588,251.344391 
	C217.650635,251.342926 217.651215,251.342926 217.651840,236.471176 
	C217.652924,210.983154 217.644287,185.495117 217.659210,160.007095 
	C217.663788,152.178818 219.181976,150.667374 226.986572,150.658173 
	C239.480682,150.643463 251.974884,150.635345 264.468964,150.662979 
	C289.723083,150.718842 311.208130,169.660767 314.202057,194.480133 
	C317.329773,220.408188 300.591431,244.528091 275.386749,250.198730 
	C264.862762,252.566452 254.140808,250.917831 243.516449,251.319046 
	C240.189362,251.444687 236.853622,251.342041 233.027588,251.344391 
M245.347778,207.493774 
	C245.348770,211.153641 245.568497,214.830002 245.293854,218.469070 
	C244.971237,222.743973 246.847473,224.059692 250.856461,223.840393 
	C255.168945,223.604477 259.505371,223.850250 263.829102,223.767441 
	C276.171631,223.531082 286.470245,213.306244 286.629883,201.196518 
	C286.793579,188.776978 276.563293,178.433029 263.866760,178.228226 
	C259.708832,178.161148 255.534714,178.420120 251.394089,178.141891 
	C246.945007,177.842941 245.050552,179.285553 245.261673,184.041931 
	C245.593307,191.513260 245.348755,199.010162 245.347778,207.493774 
z"/>
<path fill="#000000" opacity="1.000000" stroke="none" 
	d="
M456.000000,232.980164 
	C449.167938,232.979370 442.835175,232.922577 436.504028,232.998550 
	C432.724670,233.043900 429.768799,232.945709 429.627716,227.649185 
	C429.475403,221.929596 432.800995,221.993530 436.683441,222.012115 
	C443.015320,222.042419 449.359467,221.776596 455.675690,222.091614 
	C460.685669,222.341476 460.948425,219.536087 460.831635,215.797073 
	C460.719940,212.222122 461.373688,208.580673 455.745453,208.938873 
	C450.767029,209.255707 445.750763,208.929642 440.753296,209.013184 
	C437.066559,209.074799 435.822601,207.293808 435.858002,203.761871 
	C435.892029,200.365631 436.725006,198.128113 440.640289,198.677963 
	C445.583038,199.372055 447.157837,197.127258 446.749664,192.426086 
	C446.433746,188.787643 446.473541,185.083664 446.746429,181.438095 
	C447.042511,177.483078 445.555878,175.792526 441.609741,176.341629 
	C437.091431,176.970352 435.323242,175.146942 435.587219,170.489258 
	C435.779510,167.096527 436.881805,165.746185 440.322266,165.762192 
	C458.318268,165.845978 476.315277,165.854797 494.310944,165.736481 
	C498.104492,165.711548 499.224457,167.369415 499.199341,170.880173 
	C499.174561,174.352188 498.618408,176.977676 494.302948,176.324493 
	C489.120361,175.540085 487.444397,177.860428 487.900513,182.811722 
	C488.235443,186.446991 488.116913,190.144897 487.932098,193.801331 
	C487.745789,197.488220 489.255798,199.110748 492.918762,198.653549 
	C496.927338,198.153244 498.455872,199.655075 498.470459,203.908615 
	C498.485992,208.442032 496.346619,209.194122 492.615967,209.066513 
	C487.789246,208.901459 482.950256,209.115341 478.121490,208.983612 
	C474.815094,208.893417 473.372467,210.033447 473.298035,213.585510 
	C473.121704,222.000565 472.961792,221.999435 481.204834,222.004395 
	C487.370270,222.008118 493.539215,222.132355 499.699860,221.960266 
	C503.775482,221.846420 505.275848,223.433273 505.239716,227.568970 
	C505.202881,231.786713 503.424652,233.074783 499.491150,233.042664 
	C485.161560,232.925613 470.830505,232.986313 456.000000,232.980164 
M474.722992,179.055527 
	C474.629578,177.788589 474.132294,176.577148 472.796692,176.534439 
	C468.685089,176.402954 464.100433,175.031448 460.608368,177.189316 
	C457.823120,178.910370 459.739929,183.056595 459.360138,186.100662 
	C459.278595,186.754364 459.335083,187.427261 459.350494,188.090790 
	C459.627655,200.019226 457.086670,198.463043 470.377716,198.694458 
	C473.550720,198.749695 474.926025,197.655502 474.816681,194.385422 
	C474.655884,189.577530 474.766876,184.760529 474.722992,179.055527 
z"/>
<path fill="#000000" opacity="1.000000" stroke="none" 
	d="
M548.161865,197.001892 
	C541.988647,203.719315 534.859436,208.411896 526.300110,210.883362 
	C517.864258,213.319168 515.835571,211.942627 514.256287,202.333679 
	C525.991577,199.514526 537.360291,195.916504 541.981995,181.211212 
	C535.204712,181.211212 529.156067,181.239288 523.107788,181.202911 
	C517.580261,181.169678 516.778564,180.179749 517.027710,174.784363 
	C517.160645,171.906738 518.209656,170.560165 521.244385,170.637436 
	C526.572998,170.773087 531.912964,170.521698 537.237915,170.715652 
	C540.693909,170.841537 542.291931,169.540283 541.895020,166.089661 
	C541.304443,160.955490 544.368774,160.627396 548.366150,160.571899 
	C552.644287,160.512497 555.678589,161.014435 554.992554,166.384445 
	C554.577209,169.635574 556.299011,170.788223 559.455383,170.700546 
	C564.616699,170.557190 569.793884,170.862411 574.948059,170.624359 
	C579.138550,170.430817 579.364014,172.802032 579.400085,175.980301 
	C579.437805,179.308777 578.829407,181.388199 574.797119,181.246979 
	C568.526062,181.027359 562.241638,181.188904 554.825684,181.188904 
	C559.307251,195.891266 570.760132,199.460281 582.490295,202.382751 
	C582.730469,205.032959 581.286926,206.803726 580.583923,208.804794 
	C579.496643,211.899368 577.539551,212.515930 574.334595,211.865067 
	C563.994019,209.765060 555.572571,204.537491 548.161865,197.001892 
z"/>
<path fill="#000000" opacity="1.000000" stroke="none" 
	d="
M379.620850,168.784302 
	C379.409637,161.895996 384.296997,164.264297 387.460541,163.930038 
	C390.524292,163.606293 392.879456,164.166367 393.178864,168.253876 
	C394.335266,184.039993 401.179535,192.230896 416.439819,196.686996 
	C417.853485,197.099777 419.227020,197.649780 420.783508,198.193466 
	C420.388550,201.499786 418.513245,203.900421 417.180939,206.497177 
	C415.973511,208.850449 413.942566,208.223831 411.939148,207.644608 
	C402.560516,204.933060 394.505920,200.250900 388.639069,192.232925 
	C387.969360,191.317642 387.481567,190.179688 385.906921,189.744583 
	C383.342194,192.532776 380.841003,195.617493 377.962708,198.297226 
	C373.382355,202.561661 367.762634,205.052048 361.934662,207.242340 
	C357.579071,208.879257 354.947632,207.847702 353.459045,203.492752 
	C352.882874,201.807068 351.392792,200.435104 351.772858,197.994247 
	C366.536560,193.951340 378.185028,186.464905 379.620850,168.784302 
z"/>
<path fill="#000000" opacity="1.000000" stroke="none" 
	d="
M398.000000,221.587296 
	C405.495850,221.585434 412.499115,221.777298 419.484619,221.507812 
	C423.412445,221.356277 424.320557,223.070221 424.281189,226.547867 
	C424.242279,229.980286 423.777985,232.297806 419.461884,232.273895 
	C397.475586,232.152069 375.488190,232.165070 353.501526,232.240250 
	C349.101562,232.255295 348.886414,229.592422 348.836548,226.302444 
	C348.785767,222.952744 350.010376,221.551300 353.526459,221.579071 
	C368.183411,221.694809 382.842041,221.603455 398.000000,221.587296 
z"/>
<path fill="#000000" opacity="1.000000" stroke="none" 
	d="
M534.000000,232.394012 
	C527.514221,232.399338 521.522766,232.247375 515.544800,232.465683 
	C511.701538,232.606033 510.664429,230.852402 510.726349,227.368668 
	C510.782867,224.188354 511.103241,221.851700 515.194519,221.868179 
	C537.308105,221.957260 559.422424,221.955383 581.536194,221.891907 
	C585.920837,221.879318 586.094971,224.582108 586.176208,227.853912 
	C586.262878,231.340271 584.759460,232.475815 581.388245,232.451981 
	C565.759460,232.341492 550.129517,232.397354 534.000000,232.394012 
z"/>
</svg>